<svg width="33" height="33" fill="none" xmlns="http://www.w3.org/2000/svg"><path d="M20.113 7.6a7 7 0 015.53 5.53M20.113 2a12.6 12.6 0 0111.13 11.116m-1.4 11.172v4.2a2.802 2.802 0 01-3.052 2.8A27.706 27.706 0 0114.71 26.99a27.3 27.3 0 01-8.4-8.4A27.706 27.706 0 012.011 6.452 2.8 2.8 0 014.797 3.4h4.2a2.8 2.8 0 012.8 2.408 17.97 17.97 0 00.98 3.934 2.8 2.8 0 01-.63 2.954l-1.778 1.778a22.4 22.4 0 008.4 8.4l1.778-1.778a2.8 2.8 0 012.954-.63c1.27.474 2.59.803 3.934.98a2.8 2.8 0 012.408 2.842z" stroke="#FFEAA7" stroke-width="3" stroke-linecap="round" stroke-linejoin="round"/></svg>