<svg width="65" height="65" fill="none" xmlns="http://www.w3.org/2000/svg"><g filter="url(#filter0_dd)"><path d="M36.113 19.6a7 7 0 015.53 5.53M36.113 14a12.6 12.6 0 0111.13 11.116m-1.4 11.172v4.2a2.802 2.802 0 01-3.052 2.8A27.706 27.706 0 0130.71 38.99a27.3 27.3 0 01-8.4-8.4 27.705 27.705 0 01-4.298-12.138 2.8 2.8 0 012.786-3.052h4.2a2.8 2.8 0 012.8 2.408 17.97 17.97 0 00.98 3.934 2.8 2.8 0 01-.63 2.954l-1.778 1.778a22.4 22.4 0 008.4 8.4l1.778-1.778a2.8 2.8 0 012.954-.63c1.27.474 2.59.803 3.934.98a2.8 2.8 0 012.408 2.842z" stroke="#FFEAA7" stroke-width="3" stroke-linecap="round" stroke-linejoin="round"/></g><defs><filter id="filter0_dd" x="-12" y="-12" width="88" height="88" filterUnits="userSpaceOnUse" color-interpolation-filters="sRGB"><feFlood flood-opacity="0" result="BackgroundImageFix"/><feColorMatrix in="SourceAlpha" values="0 0 0 0 0 0 0 0 0 0 0 0 0 0 0 0 0 0 127 0"/><feOffset dy="4"/><feGaussianBlur stdDeviation="8"/><feColorMatrix values="0 0 0 0 0.14902 0 0 0 0 0.196078 0 0 0 0 0.219608 0 0 0 0.08 0"/><feBlend mode="multiply" in2="BackgroundImageFix" result="effect1_dropShadow"/><feColorMatrix in="SourceAlpha" values="0 0 0 0 0 0 0 0 0 0 0 0 0 0 0 0 0 0 127 0"/><feOffset dy="4"/><feGaussianBlur stdDeviation="3"/><feColorMatrix values="0 0 0 0 0.14902 0 0 0 0 0.196078 0 0 0 0 0.219608 0 0 0 0.16 0"/><feBlend mode="multiply" in2="effect1_dropShadow" result="effect2_dropShadow"/><feBlend in="SourceGraphic" in2="effect2_dropShadow" result="shape"/></filter></defs></svg>